<?xml version="1.0" standalone="no"?>
<!DOCTYPE svg PUBLIC "-//W3C//DTD SVG 20010904//EN"
 "http://www.w3.org/TR/2001/REC-SVG-20010904/DTD/svg10.dtd">
<svg version="1.0" xmlns="http://www.w3.org/2000/svg"
 width="500px" height="500px" viewBox="0 0 5000.000000 5000.000000"
 preserveAspectRatio="xMidYMid meet">

<g transform="translate(0.000000,5000.000000) scale(0.100000,-0.100000)"
fill="#F0A33B" stroke="none">
<path d="M10495 40790 l4430 -4430 14602 0 c8032 0 14603 3 14603 8 0 4 -1990
1997 -4423 4430 l-4422 4422 -14610 0 -14610 0 4430 -4430z"/>
<path d="M4730 29725 l0 -14610 4430 -4430 4430 -4430 0 14610 0 14610 -4430
4430 -4430 4430 0 -14610z"/>
<path d="M15362 19758 l3 -14833 14830 0 14830 0 3 14833 2 14832 -14835 0
-14835 0 2 -14832z m24288 11986 c0 -6 -541 -2182 -560 -2255 l-11 -39 -721 2
-721 3 -19 55 c-51 151 -191 246 -421 286 -79 14 -157 16 -542 11 -247 -3
-493 -11 -545 -17 -346 -41 -613 -276 -735 -645 -15 -44 -315 -1234 -668
-2645 l-641 -2565 -1 -135 c0 -133 1 -136 33 -202 71 -147 232 -232 497 -265
150 -18 351 -13 481 12 293 56 484 194 601 433 42 86 68 184 345 1290 290
1161 299 1197 288 1244 -16 63 -81 136 -169 188 -125 74 -384 159 -536 175
-36 4 -65 9 -65 11 0 4 333 1339 351 1407 l10 37 1419 0 c1260 0 1420 -2 1420
-15 0 -36 -1292 -5180 -1325 -5275 -45 -130 -157 -361 -222 -457 -85 -126
-173 -231 -283 -336 -369 -354 -906 -576 -1600 -661 -272 -33 -453 -38 -1285
-34 -899 5 -882 4 -1160 70 -378 89 -625 241 -794 487 -109 160 -176 318 -208
492 -23 126 -22 350 1 484 18 102 1766 7110 1812 7265 151 508 476 933 954
1248 132 87 350 195 496 245 126 44 329 86 465 96 119 9 4059 14 4059 5z
m-16600 -24 c225 -12 528 -42 713 -71 1500 -232 2530 -998 3047 -2267 30 -73
57 -131 60 -130 3 2 62 66 130 143 718 809 1536 1414 2422 1789 643 273 1371
440 2223 511 221 18 703 41 710 33 4 -4 -390 -1604 -465 -1888 -9 -34 -13 -37
-97 -64 -169 -55 -338 -161 -426 -270 l-39 -47 -729 -2911 -730 -2912 16 -44
c23 -68 73 -140 127 -182 52 -42 154 -93 206 -105 17 -3 32 -12 32 -18 -1 -7
-108 -439 -238 -962 l-237 -950 -1442 -3 c-1151 -2 -1443 0 -1443 10 0 7 107
440 238 961 l237 948 90 30 c167 56 348 173 435 280 34 42 50 101 711 2713
372 1469 675 2673 673 2675 -6 7 -132 -76 -249 -163 -139 -104 -398 -358 -527
-517 -525 -647 -972 -1516 -1451 -2819 -280 -761 -650 -2038 -1062 -3665 -53
-209 -101 -397 -106 -417 l-10 -38 -969 0 c-819 0 -970 2 -970 14 0 7 18 90
41 182 373 1548 858 3852 953 4529 173 1224 5 2178 -498 2817 -33 43 -64 74
-67 70 -4 -4 -313 -1209 -688 -2678 l-682 -2672 20 -57 c26 -73 82 -147 146
-190 51 -35 162 -85 190 -85 9 0 18 -6 20 -12 2 -7 -103 -440 -233 -963 l-237
-950 -1442 -3 c-1151 -2 -1443 0 -1443 10 0 7 107 440 238 961 l237 948 90 30
c167 56 349 173 435 280 34 43 50 103 762 2944 l727 2900 -25 55 c-56 123
-173 231 -302 279 l-59 22 241 965 241 964 130 0 c71 0 218 -5 325 -10z
m15407 -14093 c8 -9 -1055 -4244 -1084 -4317 -90 -225 -311 -460 -632 -672
-122 -81 -237 -138 -356 -176 l-85 -28 59 -18 c227 -68 466 -330 553 -606 19
-61 23 -96 22 -190 l0 -115 -531 -2118 c-292 -1166 -535 -2123 -539 -2127 -15
-15 -2880 -24 -3184 -11 -623 27 -1037 108 -1369 267 -340 162 -538 380 -618
681 -24 88 -26 117 -27 278 0 135 4 203 17 270 14 70 288 1180 338 1368 l10
37 969 0 c546 0 970 -4 970 -9 0 -5 -15 -60 -34 -122 -85 -285 -100 -362 -101
-524 0 -123 2 -133 28 -187 30 -60 59 -87 116 -106 24 -9 231 -12 731 -12
l696 0 283 1128 c155 620 282 1130 281 1135 0 4 -375 7 -834 7 l-833 0 242
973 243 972 838 5 838 5 276 1105 c152 608 280 1117 283 1133 l7 27 -712 -2
-713 -3 -46 -23 c-163 -80 -303 -344 -399 -752 -17 -74 -33 -141 -36 -147 -3
-10 -206 -13 -974 -13 -533 0 -970 2 -970 5 0 20 327 1305 351 1382 291 908
1173 1416 2609 1503 153 9 3307 6 3317 -3z m-11157 -13 c0 -21 -468 -1885
-478 -1903 -4 -7 -48 -28 -98 -46 -209 -76 -322 -153 -453 -311 -20 -24 -148
-525 -748 -2918 -491 -1964 -720 -2893 -713 -2900 5 -5 10 -17 10 -26 0 -35
62 -140 109 -183 48 -45 150 -103 224 -126 20 -7 37 -17 37 -22 0 -8 -438
-1769 -471 -1891 l-10 -38 -1439 0 c-1365 0 -1440 1 -1440 18 0 9 108 444 238
967 l238 949 90 31 c172 60 300 139 411 254 l58 59 728 2915 729 2914 -31 61
c-98 193 -335 293 -696 291 -71 0 -247 -6 -390 -13 -143 -8 -261 -13 -262 -12
-1 1 55 226 125 501 l127 499 840 472 840 473 1213 0 c1095 1 1212 -1 1212
-15z m1007 -8243 c349 -77 589 -315 658 -652 23 -109 16 -323 -13 -459 -47
-218 -145 -443 -261 -600 -242 -330 -607 -565 -986 -636 -138 -26 -434 -27
-552 -1 -345 74 -582 302 -654 627 -18 81 -20 117 -16 245 16 497 280 969 699
1247 195 130 393 207 628 244 121 19 378 11 497 -15z"/>
</g>
</svg>
